<svg id="Layer_2" data-name="Layer 2" xmlns="http://www.w3.org/2000/svg" viewBox="0 0 59.82 23.8"><defs><style>.cls-1{fill:#3d3d3d;}</style></defs><title>izifit</title><circle class="cls-1" cx="3.02" cy="3.02" r="3.02"/><circle class="cls-1" cx="24.69" cy="3.02" r="3.02"/><circle class="cls-1" cx="44.69" cy="3.02" r="3.02"/><path class="cls-1" d="M10.29,35.73V49.65a2.61,2.61,0,0,0,.94,1.61c.81.61,1.9.49,3.42.33.53-.06,1-.14,1.25-.19V37.55a2.27,2.27,0,0,0-.61-1.49,2.42,2.42,0,0,0-1.3-.61,3.82,3.82,0,0,0-1.22,0C12.21,35.52,11.39,35.62,10.29,35.73Z" transform="translate(-10.09 -28.1)"/><path class="cls-1" d="M32,35.73V49.65a2.7,2.7,0,0,0,.94,1.61c.81.61,1.91.49,3.43.33.53-.06,1-.14,1.24-.19V37.55A2.17,2.17,0,0,0,37,36.06a2.36,2.36,0,0,0-1.29-.61,3.82,3.82,0,0,0-1.22,0C33.9,35.52,33.08,35.62,32,35.73Z" transform="translate(-10.09 -28.1)"/><path class="cls-1" d="M52,35.73V49.65a2.65,2.65,0,0,0,.94,1.61c.81.61,1.91.49,3.43.33.53-.06,1-.14,1.24-.19V37.55A2.22,2.22,0,0,0,57,36.06a2.36,2.36,0,0,0-1.3-.61,3.76,3.76,0,0,0-1.21,0C53.9,35.52,53.08,35.62,52,35.73Z" transform="translate(-10.09 -28.1)"/><path class="cls-1" d="M17.83,39.79h6.08l-6.08,7.32a3.17,3.17,0,0,0,.44,4.31H29.52a2,2,0,0,0,1-.63,2.36,2.36,0,0,0,.5-1.55,3.83,3.83,0,0,0-.61-2.16H24.12l6-7.29A3.24,3.24,0,0,0,30.68,38a3.41,3.41,0,0,0-1.22-2.52H18.85a2.11,2.11,0,0,0-1.16.72,2.49,2.49,0,0,0-.36,1.71A4.73,4.73,0,0,0,17.83,39.79Z" transform="translate(-10.09 -28.1)"/><path class="cls-1" d="M45.1,41V51.42a12.84,12.84,0,0,1-2.79.23c-1.4,0-1.8-.29-2-.5a2.22,2.22,0,0,1-.67-1.27V34.48A5.37,5.37,0,0,1,43,29.9a9.3,9.3,0,0,1,3.75-.69,7.54,7.54,0,0,1,2.17.09,6.38,6.38,0,0,1,1.76.68,2.94,2.94,0,0,1,.85,2.16,2,2,0,0,1-.63,1.53c-.67.45-1.26-.23-3-.18a3.7,3.7,0,0,0-2.18.58,2.92,2.92,0,0,0-.89,1v1.66h5.45a4.26,4.26,0,0,1,.49,2.32,2.24,2.24,0,0,1-.47,1.36,2,2,0,0,1-.8.55Z" transform="translate(-10.09 -28.1)"/><path class="cls-1" d="M59.61,32.3V47.46a4.55,4.55,0,0,0,1.11,2.8,4.9,4.9,0,0,0,2.65,1.46,7.6,7.6,0,0,0,2.68.12c1.39-.11,2.08-.17,2.71-.69a2.83,2.83,0,0,0,1-2.16,2.74,2.74,0,0,0-.8-1.82,4,4,0,0,1-1.74.44,2.28,2.28,0,0,1-1.73-.47,1.73,1.73,0,0,1-.45-.8V41h3.51a1.83,1.83,0,0,0,1.08-.68A2.08,2.08,0,0,0,69.91,39a5.19,5.19,0,0,0-.57-2.24H65.05V34.14a2.11,2.11,0,0,0-.38-1.23,2.32,2.32,0,0,0-1.36-.83,5.16,5.16,0,0,0-2,0C60.88,32.12,60.3,32.19,59.61,32.3Z" transform="translate(-10.09 -28.1)"/></svg>